# xmcd
#
# Track frame offsets:
#	150
#	16030
#	30390
#	45805
#	60337
#	71862
#	87129
#	100400
#	116837
#
# Disc length: 1675 seconds
#
# Revision: 0
# Processed by: cddbd v1.4PL0 Copyright (c) Steve Scherf et al.
# Submitted via: EasyCDDAExtractor 4.5.0.2
#
DISCID=64068909
DTITLE=The Black Sorrows - Sonola
DYEAR=1996
DGENRE=Blues
TTITLE0=Brown Eyed Girl
TTITLE1=Have Mercy
TTITLE2=What A Difference A Day Makes
TTITLE3=Don't Look Back
TTITLE4=Promised Land
TTITLE5=You Better Move On
TTITLE6=Before I Grow Too Old
TTITLE7=Young Boy Blues
TTITLE8=Blow Joe Blow
EXTD=
EXTT0=
EXTT1=
EXTT2=
EXTT3=
EXTT4=
EXTT5=
EXTT6=
EXTT7=
EXTT8=
PLAYORDER=
